<?xml version="1.0" encoding="UTF-8" standalone="no"?> <svg id="Layer_2" data-name="Layer 2" xmlns="http://www.w3.org/2000/svg" viewBox="0 0 64 64"><path d="M60.24,16.5l-.08-.27a.59.59,0,0,0,0-.08l-.19-.23,0,0-.25-.15-.11,0-.4-.06H59l-.38.1-.06,0-.23.16,0,.06-.14.2-.11.29s0,.05,0,.07v.2a.13.13,0,0,0,0,.06l.07.23L46,12.9h0l-.07,0-.07,0-.07,0h-.09L35.18,9.19a.34.34,0,0,0,0-.08A.24.24,0,0,0,35.07,9l0,0,.11-.1.05-.06.07-.15,0-.06V8.56l0-.17V8.32l0-.17a.19.19,0,0,0,0-.07l-.07-.17-.06-.1L35,7.65l-.32-.17-.32,0-.29,0-.1,0-.13.06-.06,0,0,0-.12.12,0,.06-.1.2s0,.07,0,.08l0,.16a.11.11,0,0,0,0,.08l0,.16a.14.14,0,0,0,0,.07l.06.16,0,.06,0,.06.08.08,0,0-.06,0a.6.6,0,0,0-.08.16s0,0,0,.07v.37a.25.25,0,0,0,0,.12l0,.05,0,0s0,0,0,0l.15.15-.07,1.67-.05,0,0,0-.06.09s0,.15,0,.17v.13s0,.05,0,.07l0,.09.05.07,0,0v.11l-.08.07,0,.1s0,.14-.05.16a.34.34,0,0,0,0,.1.35.35,0,0,0,0,.11l0,.06,0,.06.05.05-.08,2,0,0a.26.26,0,0,0-.25-.07.24.24,0,0,0-.17.18l-.18.63-.11.21-.08.24,0,.38,0,.42.05.31v0l-.16.46h0l-.13.32-.47.92-.2.56-.1.47-2.9,1.29-.5-.38-.33-.16-.11,0h-.09l-.31.06-.06,0-.32.16-.06,0h-.05l0,0-.2-.07-.41-.08-.38.05-.39.13-.41.24-.24.23-.49.65-.26.53-.67.21-1.59.56-3.18,1.26-.42-.22L18,24.64h-.1l-.21,0H17.6l-.39.11-1.54.55-1.57.71-1.75,1L9.11,28.29,5.49,26l0-.16h0a.64.64,0,0,0,0-.07l0-.06a.47.47,0,0,0-.06-.09h0l.11-.2s0,0,0-.06l0-.23a.25.25,0,0,0,0-.08l-.05-.16-.13-.22,0,0L5,24.51l-.12-.05-.31-.05-.21,0-.3.13-.2.19-.13.3,0,.23a.19.19,0,0,0,0,.08l.05.16L4,25.8l0,0H4a.18.18,0,0,0,0,.1v.14l0,.29a.2.2,0,0,0,0,.07l0,.06a.24.24,0,0,0,.06.08l.06.06h0s0,0,0,0l.06,0,.15,1.22,0,0,0,.06a.21.21,0,0,0,0,.07.19.19,0,0,0,0,.07v.11a.59.59,0,0,0,0,.13l.06.13a.34.34,0,0,0,.06.06l0,0h0l0,.06a.35.35,0,0,0-.05.13s0,.11,0,.12a.37.37,0,0,0,0,.11,1.33,1.33,0,0,1,.06.12l.06.08,0,.05.85,6.91,0,0,0,.06s0,0,0,.06a.17.17,0,0,0,0,.07v.11a.69.69,0,0,0,0,.13l0,.06a.05.05,0,0,0,0,0l0,.06,0,0,0,0,0,.06v.26a.21.21,0,0,0,0,.06l0,.06,0,.06.07.08,0,0L5.71,39l0,0s0,.06,0,.07v.21s0,.07,0,.08,0,.06,0,.07l0,.06,0,.07,0,.06a.47.47,0,0,1,.1.1l.07,0,.11.06.23,0,.23,0,.17-.08.09-.08h0l0,0,0-.06,0-.1s0-.06,0-.07,0-.06,0-.07v-.14s0-.07,0-.08,0-.06,0-.07l0-.06,0-.06,0-.07-.12-1,15,10.92.08.08a.36.36,0,0,0,.1.07l.07,0L25,51.11l0,.06.09.07.1,0h0l2.52,1.83h0a.26.26,0,0,1,0,.08l0,.15a.48.48,0,0,0,0,.12l0,.16a.17.17,0,0,1,0,.06l.05.09,0,.05,0,1.56-.07.13a.38.38,0,0,0,0,.1l0,.09s0,.1,0,.1,0,.06,0,.07l0,.15,0,.1.06.1.05.07.07.07.07,0,.09,0,.06,0,.28.05.24,0,.07,0,.08-.05.07,0,.1-.1a.21.21,0,0,0,0-.06l.05-.08,0-.09a.14.14,0,0,1,0-.06v-.19s0-.06,0-.08v-.09l0-.09a.17.17,0,0,0,0-.06l-.05-.08,0-1.54.05-.07.06-.11,0-.09,0-.15a.48.48,0,0,0,0-.12l0-.15a.17.17,0,0,1,0-.06l0,0,.05-.08,0-.11v-.1a.57.57,0,0,0,0-.13l0-.1a.24.24,0,0,0,0-.1l-.05-.09,0,0,0-1.45,2-1.33.3,2v.1h0l0,.19.06.73a.22.22,0,0,0,.05.11v0l.11.08h0l0,0h.11l.07,0,.07,0,10-7,.06,0,0,0h0l0,0,.07,0,.06-.05,0,0,0,0a.31.31,0,0,0,0-.25l0-.61v-.17h0l-.08-1.18-.1-1v-.07l6.32-4.27.17,0,.26-.12,2-1.39h0l4.51-3.1v.08l0,.08,0,.12,0,.07,0,.06-.36,2.1v0l0,0-.07.11,0,.06L55,36l0,.08s0,.11,0,.12a.22.22,0,0,0,0,.08v.14l0,.08a.36.36,0,0,1,0,.09l.07.09,0,0,0,0,.09.07.25.11.29,0H56l.21-.08.08,0,.06-.05.1-.1.07-.11s0-.06,0-.07l0-.07s0-.06,0-.07,0-.11,0-.13,0-.06,0-.07V36s0-.07,0-.09v0l.36-2.1.07-.06L57,33.7a.1.1,0,0,1,0-.05s0-.08,0-.09l0-.08,0-.12v-.1l0-.14a.14.14,0,0,0,0-.06l0-.07,0,0,0,0,.06-.06,0-.06a.25.25,0,0,0,0-.07l0-.12a.19.19,0,0,0,0-.08v-.17a.21.21,0,0,1,0-.06l0-.07-.06-.08,1.7-9.77.06,0,.06-.06a.1.1,0,0,0,.05,0s0-.07,0-.09l.05-.13a.45.45,0,0,0,0-.12.13.13,0,0,0,0-.06l0-.13,0-.07,0-.05,0,0v-.11l0,0,.06-.05.07-.08s0,0,0-.06l0-.07,0-.06a.19.19,0,0,0,0-.08s0-.09,0-.11l0-.07,0-.07a.5.5,0,0,0-.08-.12l0-.06.33-1.9.18-.11a0,0,0,0,1,0,0h0l.08-.06a.18.18,0,0,0,.07-.1l.12-.54s0,0,0,0,0,0,0-.07l0-.08a.47.47,0,0,0-.05-.1l-.06-.06.17-.12a.1.1,0,0,0,0-.05l.12-.15,0-.06.1-.28a.19.19,0,0,0,0-.08v-.19A.15.15,0,0,0,60.24,16.5Zm-1.73.11,0-.13.1-.16.17-.12.11,0a.32.32,0,0,0,.19.15.26.26,0,0,0,.12,0h0l.14.08.1.11.07.12,0,.13v.13l0,.11-.07.08-.08.06-.24.07h-.06l-.26,0h0l-.11-.07-.18-.18-.05-.17Zm-.59,1.52v.07l0,.05h0l0,.06.16.19-.32,1.89,0,0-.06,0-.07.05-.07.09a.05.05,0,0,0,0,0L45.81,16.29l.25-2.42L57.92,18v0A.41.41,0,0,0,57.92,18.13ZM56,35.92h-.07l-.15,0-.12,0,.33-2,.35.06ZM46.36,28l-2.31-1-3-1.4.06-.26h0l.27-.71.25-.57v0l.39-1,.23-.78h0l.25-.84.2-.44h0l.27-.41,0,0h0l0,0a.25.25,0,0,0,.14-.19l0-.21a.24.24,0,0,0-.09-.24l0-.22.14.15.12.1a.26.26,0,0,0,0,.12.25.25,0,0,0,.18.08s.07,0,.1,0l.18,0h0l.54.09,1.59.68,1.52.46.75.28.83.39.9.46.84.39.59.15.24,0h0a.26.26,0,0,0,.19.27.23.23,0,0,0,.23-.09l.17,0-.15.44-.14.2a.25.25,0,0,0,0-.12l-.07-.25a.25.25,0,0,0-.3-.18.26.26,0,0,0-.18.31l.06.25a.25.25,0,0,0,.25.18h.06a.39.39,0,0,0,.1-.08l-.06.12s0,.08,0,.11h0l0,.15a.26.26,0,0,0-.19-.28.25.25,0,0,0-.3.19l-.07.35-.14.36a.24.24,0,0,0,.14.32.15.15,0,0,0,.09,0,.25.25,0,0,0,.23-.15l.16-.41.05-.27-.07.47-.07.37v0l-.27.81-.53,1.21-.14.32.54-1.58a.26.26,0,0,0-.16-.32.26.26,0,0,0-.32.17l-.2.62L49.4,29.75l-.93-.64h0l-1-.56ZM34.26,10.26h.14l-.06,1.53H34.2Zm.6,4.74,0-.17a.16.16,0,0,0,0,.09Zm.64-1.26-.12,0-.2-.16a.26.26,0,0,0-.24-.06.29.29,0,0,0-.12.1v-.32l.08-.08h0l1.44.54,0,.38-.51-.28Zm-1.41-.32.16,0h.07l-.09,2.15-.17-.1H34Zm1,2.23.13-.23v0l0,0,.16-.2a.24.24,0,0,0,0-.24l.07,0a.25.25,0,0,0,.08-.34.26.26,0,0,0-.35-.08l-.2.12h0l.12-.33a.17.17,0,0,0,.08.06.27.27,0,0,0,.22-.08l.19.06.82.44h0l.14.07.27.06,0,0h0l.86.22.7.21.69.27h0l1.73.79,1,.34h0l.33.13.78.45a.21.21,0,0,0,.06.1.24.24,0,0,0,.35,0h.11l-.13.09a.22.22,0,0,0-.21,0l-.27.13a.23.23,0,0,0-.13.24.25.25,0,0,0,.15.21.23.23,0,0,0,0,.14.25.25,0,0,0-.09.13l-.17.52a.22.22,0,0,0-.19.05.22.22,0,0,0-.08.24l.06.29-.2.59h0l-.71,2.3-.23.33a.19.19,0,0,0,0,.08l-.07.25a.25.25,0,0,0-.15-.29.26.26,0,0,0-.32.15l-.23.59,0-.31h0l.12-.71.18-.56.56-1.19L42,18.81h0s0,0,0-.06a.25.25,0,0,0,0-.12s0,0-.06-.05l-.07-.07-.19-.06a.18.18,0,0,0-.1,0H41.4a.25.25,0,0,0-.18.1l0,0L40.3,18l-1.25-.45-1.53-.74-.78-.32L36,16.28l-.57-.13L35,16l0,0ZM37.2,14l1.85.69L39,15l-.39-.16-1.47-.38Zm2.7,1,1.91.71,0,.38-.69-.22-1.2-.56Zm5.81,2.16,2.27.84-.06.45-1.61-.65-.66-.1Zm-.89,0-.09-.06-.24-.1a.25.25,0,0,0-.26,0l0,0a.17.17,0,0,0,0-.1.06.06,0,0,0,0,0,.24.24,0,0,0-.13-.11l-.2-.06a.18.18,0,0,0-.1,0l-.16,0a.22.22,0,0,0-.17.09l0,.05-.74-.43,0-.42,2.19.82ZM43.34,18.3Zm.81-1,.12.5v0l0,.31,0,.37h0l0,0-.19.25-.15.29h0l0,.09a.07.07,0,0,0,0,0l-.13.31-.16-.12,0,0,.13-.29.51-1.79v0Zm-2.94,1.79,0,0h0Zm-.83,5.1a.22.22,0,0,0,.11.12l.1,0a.25.25,0,0,0,.23-.15l.42-1.08-.07.26,0,.37-.26.75-.13.37a.26.26,0,0,0-.24,0,.23.23,0,0,0-.13.16.25.25,0,0,0-.28.17.22.22,0,0,0,0,.08l-.06,0Zm10,4.26,0,.14-.19.55h0Zm.23.9.21-.6.16-.57.24-.57.28-.61.27-.64.26-.73v-.11h0l.21-1.16.08-.19.16-.25.15-.35.14-.44s0,0,0,0h0s0-.05,0-.08a.32.32,0,0,0,0-.09s0,0-.06-.06,0,0-.07-.05h0L52,22.69l-.15-.12a.25.25,0,0,0-.11,0l-.27,0L51,22.36,50.18,22l-.91-.47-.85-.4-.79-.29-1.49-.46-1.63-.68-.32-.06.09-.22.45-.74a.24.24,0,0,0,.14-.19l0-.22a.25.25,0,0,0-.1-.24l0-.25v0l0,.06,0,0,.18.16a.25.25,0,0,0,.06.16.27.27,0,0,0,.18.08.31.31,0,0,0,.12-.05l.77.12,1.67.68.21.07h0l.41.11,0,0h0l.93.26.8.28.87.39.11.05h0L53,21l.63.15.27,0h0a.25.25,0,0,0,.18.26.27.27,0,0,0,.26-.07l.19,0-.18.47-.15.23,0,0a.27.27,0,0,0,0-.18l-.07-.25a.24.24,0,0,0-.3-.18.25.25,0,0,0-.18.31l.07.25a.24.24,0,0,0,.24.19H54a.25.25,0,0,0,.15-.11l-.08.16a.45.45,0,0,0,0,.11h0l-.21,1.14,0,.08h0l-.1.3-1,2.43-.17.61-.21.57-.09.16.06-.14,1.08-3.15a.26.26,0,0,0-.16-.32.25.25,0,0,0-.32.16l-.21.65-1.32,3.69-.27.57-.18.68a.26.26,0,0,0,.18.31h.06a.25.25,0,0,0,.25-.18l.1-.41h0l0,.24,0,.21a.24.24,0,0,0,.19.29h.05a.26.26,0,0,0,.27-.21l.09-.61.12-.51.05-.13,1.23.54h0l.19.07a.23.23,0,0,0,.14,0l.23,0a.23.23,0,0,0,.17-.18.25.25,0,0,0,.22-.05l.27-.27.23-.31,1.18.51-4.26,2.74-.07-.21-.15-.24L51.24,31l-.5-.43-.57-.37Zm-1.8-11,2.35.87,0,.36-.71-.32L49.6,19l-.81-.22ZM55,27.14l-.12.41-.18.41-.14.25v0l-.28.4-.25.24A.26.26,0,0,0,54,29s-.06,0-.09,0l-.16,0-.05,0-.07-.09,0-.17v-.32l.06-.39.12-.42.18-.42.21-.38.23-.31.22-.22.21-.13h.11l.06,0,.06.1,0,.18v.33Zm-1.94,1.59-.66-.29.34-.64.22-.63.18-.6.25-.6.18-.39.7.29-.29.29-.28.37-.24.43-.2.47-.14.48-.07.46Zm1.33-7.85-.16,0-.2-.12a.18.18,0,0,0-.1,0l-.29,0-.54-.13-.84-.38L52,20l.07-.45,2.41.89ZM52,34.33l.05-.7,0-.63,0-.44,4.3-2.77-.26,1.48-.1.58-4,2.7Zm4.37-5.59-1.2-.52.21-.5.14-.47.08-.45v-.42l-.06-.29a.2.2,0,0,0,0-.08l-.13-.2a.22.22,0,0,0-.1-.09l-.61-.25.73-4.68,2,.76v0l0,.06a.19.19,0,0,1,0,.07s0,0,0,.07a.34.34,0,0,0,0,.1l0,.13a.54.54,0,0,0,.07.13l0,0ZM44.94,16,35,12.3a1.24,1.24,0,0,0,0-.16A.29.29,0,0,0,35,12a.19.19,0,0,0,0-.07l0-.1-.05-.06,0,0,0,0L34.91,10l0,0,10.25,3.55ZM34,8.23,34,8.12,34.14,8l0,0a.24.24,0,0,0,.11.06.22.22,0,0,0,.11,0s0,0,0,0l.09,0,.11.15.06.23,0,.12-.09.13h-.28l-.16-.07L34,8.56,34,8.44V8.23Zm-.79,8.28s0,0,0,0l0,.05Zm-.41,2.29h0l.22-.54v0l.1-.22a.21.21,0,0,0,0-.11l.22-.64.14-.25v0l.16-.19a.29.29,0,0,0,0-.24l.06,0a.26.26,0,0,0,.08-.34.25.25,0,0,0-.34-.09l-.17.1.09-.26.07,0a.26.26,0,0,0,.22-.07l.17.05.93.51.54.16.57.13.66.22.75.31,1.56.74,1.21.44.81.48a.32.32,0,0,0,0,.09.24.24,0,0,0,.13.07h0l-.26.13a.23.23,0,0,0-.13.24.26.26,0,0,0,.14.21.2.2,0,0,0,0,.11.28.28,0,0,0-.09.13l-.55,1.62h0l-1,3.28-.1,0,.13-.36a.24.24,0,0,0-.15-.32.25.25,0,0,0-.32.15l-.13.36-.79-.3-1.63-.55-.83-.2-.63-.18-.06,0-.15,0L33,22.89l-1.27-.17L32,21.24l.29-1.09Zm5,6.88s0,0,0,0l.86.39a.23.23,0,0,0,.1.15l1,.59,1,.72.91.78a.24.24,0,0,0-.15.13.23.23,0,0,0,0,.16l-.85-.38.06-.09a.26.26,0,0,0-.14-.32l-1-.4a.27.27,0,0,0,.1-.11.26.26,0,0,0-.16-.32l-1.22-.42-1.33-.4-1.63-.31h0l-1.69-.59-3.18-1a.25.25,0,0,0,.2-.17.24.24,0,0,0-.07-.24l1.76.58a.25.25,0,0,0,.32-.17.38.38,0,0,0,0-.15l.34.13,1,.31h0l.75.22h.06l1.61.45Zm-6.47-4.26-.16.54-.1.55v0l-1.41-.44-.38-.17,2.26-1Zm-5,.16a.25.25,0,0,0,.2.14l.34.05a.2.2,0,0,0-.08.08.29.29,0,0,0,0,.16l-.45-.18a.19.19,0,0,0,0-.13.23.23,0,0,0-.08-.12h.06ZM11.17,28.16l1-.44,1-.59,1.54-.82,1.52-.65,1.51-.5.16,0,.14,0,.48.26h0L27,30l-.68.27L24.77,31l-1.6.93-.81.56-1,.59-1.23.5-1.47.63-9-5.61ZM40.76,38.28l.24.63.21.72.2.8.16.87.24,1.92.07,1-9.35,6.52-.25-1.86-.18-1-.22-1L31.64,46l-.26-.81-.28-.72-.31-.62-.31-.51L30.13,43l-.34-.27-.51-.33v-.64h0l.1-.08.05-.05.06-.1a.2.2,0,0,0,0-.08l0-.49v0s0,0,0,0l0-.1a.19.19,0,0,0,0-.08h0l.12-.2a.2.2,0,0,0,0-.08l0-.27a.14.14,0,0,0,0-.09l0-.28s0-.05,0-.07l-.15-.24,0-.06-.24-.17-.15-.07-.35-.05-.35.06-.15.07-.2.15-.06,0-.15.24,0,.07,0,.13L19.91,35l1.78-.73,1-.53,1-.7,1.58-1,1.55-.79,1.45-.59,11.31,6.07.29.21.28.31.28.42Zm-32-.13-.07-.77,1.37,1,.07.79ZM6.85,33.8a.16.16,0,0,0,0-.11l-.06-.37,0-.18h0l0-.28a.25.25,0,0,0,0-.12l0-.38v-.09a.26.26,0,0,0,0-.34l0,0s0,0,0,0h0a.3.3,0,0,0-.11,0L7,31.19,7.11,31l.48,4.76-.48-.27h0A.25.25,0,0,0,7,35.38H7a.49.49,0,0,0,0-.12Zm-.8,3.86.12,0,.16,1.3-.12,0h0Zm-.38-9.6s-.06-.12-.06-.13l-.06-.07-.08-.07-.09-.71,2.69,1.69L7.71,29l-.18.13-.07.07-.17.26,0,0h0l-1.61-1v0a.14.14,0,0,0,0-.07s0-.1,0-.11A.5.5,0,0,0,5.67,28.06Zm1.14,2.2-.12.4-.05.19-.37.51L6,32l-.28-2.41Zm1.08-.42,0-.07-.06,0,0,0,.39-.16,6.67,4.22,0,.54-1.91-1.23a.43.43,0,0,0-.09-.1l-.05,0-.09,0-.06,0-2.27-1.46-.06-.08-.06,0-.09,0h0Zm7.49,5.38a.27.27,0,0,0,.07.08h-.06ZM28.63,55.55l-.1.06h-.05l-.1,0V54.12h.26l0,1.32a.28.28,0,0,0,0,.09ZM15.91,36.17l2.33,1.52,0,.84-1.13-.74L16,37Zm11.91,5,0,.24a.36.36,0,0,0,0,.09h0l-9.24-5.85.2-.11Zm.9-.1-.16,0h.31Zm.07.89v.57h0l0,.78h-.07l-.12,0v-1.2h0v-.13h.21Zm-.12,3h.12l-.06,3.86v.76a.17.17,0,0,0,0,.07.13.13,0,0,0,0,.06l0,2.79h0v.14l-.1.06h-.05l-.11-.05,0-2h0v0h0l.1-5.66ZM25.5,48.78a.25.25,0,0,0,0,.07V42.37h0v3.48a.25.25,0,0,0,.25.25h0a.25.25,0,0,0,.25-.25V42.71L27.89,44a.09.09,0,0,0,0,.07l0,.13a.53.53,0,0,0,0,.13l0,.1a.22.22,0,0,0,.05.11l.05.09,0,.05,0,3.28-.08.33-.16.35a.19.19,0,0,0,0,.08l0,.49,0,.83-1.83-1.26h0A.23.23,0,0,0,25.5,48.78ZM22,40.11v0Zm.06-.55a.15.15,0,0,0-.11,0l0-.05,0,0h0l-1.31-.85,7.34,4.73v0l-2.4-1.56,0,0a.1.1,0,0,0-.05,0Zm-3.32-2.15h0v0Zm.5,6.67a.26.26,0,0,0-.21.14V44h0l-.08-2a.25.25,0,0,0,.23.13.25.25,0,0,0,.24-.26l-.08-2.1a.19.19,0,0,0,.12,0,.25.25,0,0,0,.22-.12.25.25,0,0,0-.08-.34l-.28-.18,0-.84,2.21,1.44.13,5.91-2.19-1.53h0l0,0A.31.31,0,0,0,19.22,44.08Zm8.86-1.88v.64l-10-6.42v-.06l.06-.21.21-.11Zm-11-6.84-.1.2,0,.11L15.84,35l0-.54,1.36.86A.27.27,0,0,0,17.07,35.36Zm-.2,2.85,1.43.93.18,4.36-2.24-1.58L16,37.6Zm-.53,5.41-.05-.86,2.22,1.57,0,.88Zm6.15,2.69a.25.25,0,0,0-.34.07.11.11,0,0,0,0,.08v-.29h0l0-1.91a.25.25,0,0,0,.24.22h0a.26.26,0,0,0,.25-.26l-.07-3.78L25,42.05v6Zm6-6.47a.22.22,0,0,0,.14,0h0l.19.17.13.23v.13l0,.09h0l0,0-.18,0-.18,0-.23-.15-.09-.14,0-.18,0-.09.07-.16.09-.09A.27.27,0,0,0,28.52,39.84Zm-9.79-5,.38.24h0l8.71,5.41,0,.07Zm-1.25,0-1.7-1.07,0-.23,1.9,1.19Zm-6.84,2.38h0a.25.25,0,0,0,.23-.27l-.37-4.32,1.51,1,0,.52L12,34.08a.25.25,0,0,0-.29.41l.46.32.33,4.43L10.9,38.15a.28.28,0,0,0-.15,0,.27.27,0,0,0-.12,0,.27.27,0,0,0-.08.07l-.09-1A.25.25,0,0,0,10.64,37.26ZM13,34.31l1.86,1.2.34,5.71-1.89-1.34h0A.24.24,0,0,0,13,40l0-.22h0l-.17-2.39a.24.24,0,0,0,.21.09.25.25,0,0,0,.23-.26l-.13-1.77a.28.28,0,0,0,.15-.08.25.25,0,0,0-.06-.35l-.13-.08Zm-1.91,5.55-.07-.8,1.45,1,.06.82Zm2.44,1.76-.06-.83,1.78,1.26.05.85Zm6,4.3,0-.89,2.11,1.5,0,.91Zm2.61,2.49a0,0,0,0,0,0,0v0a.1.1,0,0,0,0,.07h0Zm.46-1.18L25,48.9v.94l-2.34-1.69ZM26,49.6l2,1.4v1l-2-1.42Zm3.79-5.55h0s0,0,0,0l-.28-.24-.08-.05.06,0a.36.36,0,0,0,0-.09l0-.14a.66.66,0,0,0,0-.14l0-.09a.45.45,0,0,0-.06-.12l-.05-.08L29.29,43h0V43l.23.14.28.22.29.36.29.45.28.59.27.68.25.78.24.86.21.94.18,1,.15,1,.12,1.07-.13.09-.23-1.68L31.59,49a.09.09,0,0,0,0-.07.14.14,0,0,0,0-.06l-.24-1.17h0v0l-.22-.78-.24-.75-.27-.67-.27-.55h0l0,0L30,44.4Zm2.32,7.83.06,0V52l-.12.09,0-.24ZM41.9,45v.1l-9.29,6.55,0-.16ZM14.74,33l0,.21-6.34-4,.15-.07ZM4.33,25l0,0h.13l.1.09.1.2,0,.18H4.51L4.3,25.4l0-.13V25.2h0ZM4.92,28h0l-.13-1.12h.07L5,28H4.92Zm.13,1.44.15,0,.63,5.36h0a.24.24,0,0,0,.08.24l.07,0s0,0-.06.06a.25.25,0,0,0,0,.22l.11.88v0l-.12,0h0v0h0Zm1.08,10,.1,0-.16.1Zm.5-2.83,0,0s0,0,0-.07v-.1a.35.35,0,0,0,0-.14l0-.11,0,0,0-.06h0l0-.25,1.22.86.08.77Zm1.44-5.53L9.5,32l.49,5.5-1.46-1a.23.23,0,0,0-.19-.07.27.27,0,0,0-.17.1l0-.21h0l0-.39a.25.25,0,0,0,.41-.21ZM25.46,50.82h0a.24.24,0,0,0,0-.08.31.31,0,0,0,.05.1Zm1.05.75,1.28.92h0Zm3.48-2a.24.24,0,0,0-.11.15l-.56.38a.21.21,0,0,0,0-.16l0-.38.05,0,.56-.37a.25.25,0,1,0-.25-.43l-.33.21,0-.12h0l.75-.52a.25.25,0,0,0,.08-.35.25.25,0,0,0-.34-.08l-.47.31-.09.07.06-3.55.05,0,.07-.13v0l.2.24.25.41.26.52.25.64.24.73.21.79.19.85,0,.19Zm13.28-9-1.2.81-.17-1-.2-.83-.24-.78-.26-.67-.12-.25h0a.25.25,0,0,0,.08-.34.23.23,0,0,0-.32-.09L40.61,37l-.3-.34-.06-.06-.34-.24-11.55-6.2h0l-.47-.25h0l-8.58-4.61L20.4,25l1-.43a.26.26,0,0,0,.13-.26l.45-.18,1.58-.56.89-.26h0l.24-.07h0l.44-.11.07,0h0l1.7.86.95.37,2.33.79,5.18,1.59,1.45.47,1.38.48,1.09.48,2.19,1.29h0l2.25,1.29,2,1.33.35.59.31.39.05.05h0l.2.18.21.15a.3.3,0,0,0,.15,0l0,0,.55.42.09.09a.3.3,0,0,0,.05.16l.35.6.07,0,.07.15.14.47v.26a.32.32,0,0,0-.06.15V36l-.12.71-.2.57a.2.2,0,0,0,0,.08v0a.22.22,0,0,0-.06.15.24.24,0,0,0-.13.11l-.19.17Zm7.65-5h0l-1.41,1h0l-.22.18h0l-.36.19-.09,0,.07-.17.11-.55a.26.26,0,0,0,.11-.2v-.8L49.05,35s0-.06,0-.08l-.08-.16h0l0,0,.19-.24a.23.23,0,0,0,.07-.19.24.24,0,0,0-.09-.18l-.39-.31-.36-.2a.23.23,0,0,0-.05-.33L48,33a.24.24,0,0,0-.35.05s0,0,0,0l-.61-.48-.27-.26,0,0-.08-.12a.25.25,0,0,0,0-.24l-.13-.21a.24.24,0,0,0,0-.3l-.15-.17a.08.08,0,0,0,0,0l-.07-.13a.22.22,0,0,0,0-.23l-.5-.6L45.51,30a.12.12,0,0,0,0-.05l-.93-.75-2-1.22-1.15-.81-1.06-.71-1.11-.63-1.19-.54-1.13-.39.22.06h.06a.27.27,0,0,0,.19-.08.24.24,0,0,0,.14-.05h.06l.06,0,1,.38.56.22h0l.41.18h0l1,.43h0l2,.93,3.23,1.4a.27.27,0,0,0,.13.17l1.1.51a.19.19,0,0,0,.1,0,.28.28,0,0,0,.13,0l.88.51.31.22.06,0,1,.7a.26.26,0,0,0,.11.14l.86.6.32.3.26.36.18.39a.27.27,0,0,0,.13.13l.09.62v.57h0l0,.66-.14.63-.21.46Zm5,.84-.12,0-.15,0-.13-.06,0,0,0,0,.13.06.29,0H56Zm.69-4.28h0v.07h-.07l-.24,0s0,0,0,0a.39.39,0,0,0,.06-.11.19.19,0,0,0,0-.08l.45-2.69V29.2a.26.26,0,0,0-.06-.13.11.11,0,0,0,0-.07l1.12-6.56.4.06Zm1.84-10.55h-.09l-.26,0-.05,0v0h0v0l.41.06A.09.09,0,0,0,58.48,21.62Zm.11-1h0l-.06,0-.23,0h0l.3-1.81.3.05Zm.22-2.91-.18-.05.15,0,.35.05h0l.11.07h-.13Z"/><path d="M43.7,20.13a.25.25,0,0,0-.32.15.24.24,0,0,0,.14.32l1.23.51.09,0a.25.25,0,0,0,.23-.15.24.24,0,0,0-.13-.33Z"/><path d="M36.79,15.57l1.42.55.08,0a.25.25,0,0,0,.24-.16.24.24,0,0,0-.15-.32l-.72-.28-1.28-.54a.25.25,0,0,0-.33.13.25.25,0,0,0,.13.33Z"/><path d="M47.94,22.44l.84.35,1.62.6h.09a.24.24,0,0,0,.23-.16.24.24,0,0,0-.15-.32l-.76-.28L48.13,22a.25.25,0,0,0-.33.14A.25.25,0,0,0,47.94,22.44Z"/><path d="M35,17.21l1.34.55.09,0a.24.24,0,0,0,.23-.16.25.25,0,0,0-.14-.33L35.81,17l-1.21-.54a.25.25,0,0,0-.33.12.25.25,0,0,0,.12.33Z"/><path d="M53.38,23.59l.1,0a.26.26,0,0,0,.23-.16l.16-.42.09-.41a.24.24,0,0,0-.19-.29.25.25,0,0,0-.3.19l-.07.37-.16.37A.25.25,0,0,0,53.38,23.59Z"/><path d="M39.18,18.87l1.18.46.1,0a.26.26,0,0,0,.23-.16.25.25,0,0,0-.14-.32l-1.2-.47a.25.25,0,0,0-.17.47Z"/><path d="M41.23,17.24l1.26.46a.15.15,0,0,0,.09,0,.25.25,0,0,0,.09-.48l-1.27-.47a.25.25,0,0,0-.32.15A.26.26,0,0,0,41.23,17.24Z"/><path d="M45.46,18.31a.25.25,0,1,0-.17.47l1.29.51.09,0a.25.25,0,0,0,.23-.15.24.24,0,0,0-.13-.33Z"/><path d="M52.7,21.11l-.8-.27-1.78-.67a.25.25,0,0,0-.18.46l.88.35,1.72.6.08,0a.25.25,0,0,0,.08-.49Z"/></svg>